<svg xmlns="http://www.w3.org/2000/svg" x="0px" y="0px" width="30" height="30" viewBox="0,0,256,256"
style="fill:#000000;">
<g fill="none" fill-rule="nonzero" stroke="none" stroke-width="1" stroke-linecap="butt" stroke-linejoin="miter" stroke-miterlimit="10" stroke-dasharray="" stroke-dashoffset="0" font-family="none" font-weight="none" font-size="none" text-anchor="none" style="mix-blend-mode: normal"><g transform="scale(8.53333,8.53333)"><path d="M15,22.5c-7.995,0 -14.5,-3.364 -14.5,-7.5c0,-4.136 6.505,-7.5 14.5,-7.5c7.995,0 14.5,3.364 14.5,7.5c0,4.136 -6.505,7.5 -14.5,7.5z" fill="#6e57e0"></path><path d="M15,8c7.589,0 14,3.206 14,7c0,3.794 -6.411,7 -14,7c-7.589,0 -14,-3.206 -14,-7c0,-3.794 6.411,-7 14,-7M15,7c-8.284,0 -15,3.582 -15,8c0,4.418 6.716,8 15,8c8.284,0 15,-3.582 15,-8c0,-4.418 -6.716,-8 -15,-8z" fill="#8b75a1"></path><path d="M9.417,13c0.598,0 1.116,0.203 1.384,0.543c0.192,0.244 0.245,0.555 0.157,0.927c-0.268,1.129 -0.742,1.53 -2.869,1.53h-1.509l0.563,-3h2.274M9.417,12h-3.104l-1.313,7h1l0.396,-2h1.693c2.199,0 3.395,-0.417 3.842,-2.299c0.385,-1.617 -0.892,-2.701 -2.514,-2.701zM22.417,13c0.598,0 1.116,0.203 1.384,0.543c0.192,0.244 0.245,0.555 0.157,0.927c-0.268,1.129 -0.742,1.53 -2.869,1.53h-1.509l0.563,-3h2.274M22.417,12h-3.104l-1.313,7h1l0.396,-2h1.693c2.199,0 3.395,-0.417 3.842,-2.299c0.385,-1.617 -0.892,-2.701 -2.514,-2.701z" fill="#36404d"></path><g fill="#36404d"><path d="M17.652,12.424c-0.329,-0.302 -0.91,-0.424 -1.777,-0.424h-1.848l0.451,-2h-1.017l-1.461,7h1.016l0.841,-4h0.171h1.848c0.91,0 1.094,0.155 1.096,0.155c0.019,0.03 0.058,0.194 -0.008,0.532l-0.676,3.313h1.046l0.61,-3.121c0.131,-0.667 0.032,-1.157 -0.292,-1.455z"></path></g></g></g>
</svg>